<svg width="121" height="169" viewBox="0 0 121 169" fill="none" xmlns="http://www.w3.org/2000/svg">
<path d="M30 131.525V89.5247C29.6667 86.0247 26.8 79.0247 18 79.0247C9.2 79.0247 5.66667 86.0247 5 89.5247V151.525C5.16667 153.358 6.1 157.525 8.5 159.525C10.9 161.525 12.8333 162.691 13.5 163.025H103.5C105 162.858 108.6 161.925 111 159.525C114 156.525 115.5 152.525 115.5 151.525C115.5 150.725 115.5 60.5247 115.5 15.5247C114.333 12.1913 110.4 5.42465 104 5.02465C97.6 4.62465 92.6667 9.19132 91 11.5247M91 11.5247V76.0247M91 11.5247C89.8333 9.35799 85.9 5.02465 79.5 5.02465C73.1 5.02465 69.5 9.35799 68.5 11.5247M68.5 11.5247V76.0247M68.5 11.5247C67.1667 9.35799 62.8 5.02465 56 5.02465C49.2 5.02465 44.5 9.35799 43 11.5247M43 11.5247V76.0247M43 11.5247C41.5 9.35799 36.8 5.02465 30 5.02465C23.2 5.02465 19.1667 9.35799 18 11.5247V78.0247" stroke="#C22879" stroke-width="10"/>
</svg>
