<svg width="148" height="138" viewBox="0 0 148 138" fill="none" xmlns="http://www.w3.org/2000/svg">
<path d="M50.5338 33H78.0338M100.034 19.5C100.034 27.1 92.7005 31.6667 89.0338 33H78.0338M100.034 19.5C100.034 11.9 92.7005 6.66667 89.0338 5H16.5338C15.0338 5 11.3338 5.8 8.5338 9C5.7338 12.2 5.0338 15 5.0338 16V119.5C4.86714 121.167 5.2338 125.3 8.0338 128.5C10.8338 131.7 14.5338 132.833 16.0338 133H88.5338M100.034 19.5H129.534C133.867 20.3333 142.534 24.2 142.534 33C142.534 41.8 135.2 46.3333 131.534 47.5M132.534 105.5C135.867 106.833 142.534 111.6 142.534 120C142.534 128.4 134.534 132.167 130.534 133H88.5338M132.534 105.5H88.5338M132.534 105.5C135.867 104.167 142.534 99.3 142.534 90.5C142.534 81.7 135.2 77.5 131.534 76.5M88.5338 105.5C85.0338 106.5 78.0338 110.8 78.0338 120C78.0338 129.2 85.0338 132.5 88.5338 133M88.5338 105.5C85.0338 104.167 78.0338 99.3 78.0338 90.5C78.0338 81.7 85.0338 77.5 88.5338 76.5M88.5338 76.5H131.534M88.5338 76.5C85.0338 75.5 78.0338 71.2 78.0338 62C78.0338 52.8 85.0338 48.5 88.5338 47.5M131.534 76.5C135.2 75 142.534 70 142.534 62C142.534 54 135.2 49 131.534 47.5M131.534 47.5H88.5338M88.5338 47.5C85.0338 46.3333 78.0338 41.8 78.0338 33" stroke="#4EC5CE" stroke-width="10"/>
</svg>
