<svg width="188" height="136" viewBox="0 0 188 136" fill="none" xmlns="http://www.w3.org/2000/svg">
<path d="M145.182 33H106.682C102.848 32.5 95.1818 28.9 95.1818 18.5C95.1818 8.1 102.848 5.16667 106.682 5H170.682C172.682 5.16667 177.182 6.2 179.182 9C181.182 11.8 182.015 15.1667 182.182 16.5V118.5C182.348 120.167 182.182 124.1 180.182 126.5C178.182 128.9 174.348 130.5 172.682 131H114.182M71.1818 103.5C68.0151 104.833 61.6818 109.6 61.6818 118C61.6818 126.4 69.0151 130.167 72.6818 131H114.182M71.1818 103.5H115.682M71.1818 103.5C68.0151 101.833 61.6818 96.8 61.6818 90C61.6818 80.8 68.0151 76.5 71.1818 75.5M115.682 103.5C119.682 104.5 127.682 108.8 127.682 118C127.682 127.2 118.682 130.5 114.182 131M115.682 103.5C119.682 103.167 127.682 100 127.682 90C127.682 80 119.682 76.1667 115.682 75.5H71.1818M71.1818 75.5L19.1818 82C15.0151 82 6.38182 79.7 5.18182 70.5C3.98182 61.3 9.01515 56.6667 11.6818 55.5L81.1818 46.5L17.1818 37C13.0152 36 4.78182 31.6 5.18182 22C5.58182 12.4 12.6818 9 16.1818 8.5L95.1818 17" stroke="#FAF251" stroke-width="10"/>
</svg>
